<svg width="294" height="137" viewBox="0 0 294 137" fill="none" xmlns="http://www.w3.org/2000/svg">
<path fill-rule="evenodd" clip-rule="evenodd" d="M39.2 136.6L47 122.4L45.8 60.6C50 58.2 45.4 33.2 8.1 19.6C-2.7 52.1 -2.7 84.6 8.1 117C12 128.9 22.7 136.6 35.2 136.6H39.2Z" fill="#454753"/>
<path fill-rule="evenodd" clip-rule="evenodd" d="M285.6 117C296.4 84.5 296.4 52 285.6 19.6C241.7 25.8 243.7 54.6 251.2 60.6L246.8 109.7L254.5 136.6H258.5C270.9 136.6 281.7 128.8 285.6 117Z" fill="#454753"/>
<path fill-rule="evenodd" clip-rule="evenodd" d="M39.2 54H254.4V136.6H39.2V54Z" fill="#E4EAF8"/>
<path id="progress-bar-fill" fill-rule="evenodd" clip-rule="evenodd" d="M38.8 54H68.8V137H38.8V54Z" fill="#1EA59D" fill-opacity="0.6"/>
<path fill-rule="evenodd" clip-rule="evenodd" d="M227 136.6H223V98.876C223 97.0891 223.909 95.6 225 95.6C226.091 95.6 227 97.0891 227 98.876V136.6Z" fill="#C0C5D0"/>
<path d="M191.7 136.6H195.7V98.876C195.7 97.0891 194.791 95.6 193.7 95.6C192.609 95.6 191.7 97.0891 191.7 98.876V136.6Z" fill="#C0C5D0"/>
<path d="M160.4 136.6H164.4V98.876C164.4 97.0891 163.491 95.6 162.4 95.6C161.309 95.6 160.4 97.0891 160.4 98.876V136.6Z" fill="#C0C5D0"/>
<path d="M129.1 136.6H133.1V59.8877C133.1 58.0944 132.191 56.6 131.1 56.6C130.009 56.6 129.1 58.0944 129.1 59.8877V136.6Z" fill="#C0C5D0"/>
<path d="M97.8 136.6H101.8V98.876C101.8 97.0891 100.891 95.6 99.8 95.6C98.7091 95.6 97.8 97.0891 97.8 98.876V136.6Z" fill="#C0C5D0"/>
<path d="M66.5 136.6H70.5V98.876C70.5 97.0891 69.5909 95.6 68.5 95.6C67.4091 95.6 66.5 97.0891 66.5 98.876V136.6Z" fill="#454753"/>
<path fill-rule="evenodd" clip-rule="evenodd" d="M62.5 57.1H79V98.6H62.5V57.1Z" fill="#41434D"/>
<path fill-rule="evenodd" clip-rule="evenodd" d="M89.3 57.1H105.8V98.6H89.3V57.1Z" fill="#41434D"/>
<path fill-rule="evenodd" clip-rule="evenodd" d="M156.4 57.1H173V98.6H156.4V57.1Z" fill="#41434D"/>
<path fill-rule="evenodd" clip-rule="evenodd" d="M185.8 57.1H202.4V98.6H185.8V57.1Z" fill="#41434D"/>
<path fill-rule="evenodd" clip-rule="evenodd" d="M214.4 57.1H231V98.6H214.4V57.1Z" fill="#41434D"/>
<path fill-rule="evenodd" clip-rule="evenodd" d="M39.2 60.6C39.2 60.6 36.1 38.6 8.10001 19.6C12 7.69999 22.7 0 35.2 0H258.4C270.9 0 281.6 7.69999 285.5 19.6C257.5 38.6 254.4 60.6 254.4 60.6H39.2Z" fill="#5C5E71"/>
<path d="M62.4 48.8C72.6173 48.8 80.9 40.5173 80.9 30.3C80.9 20.0828 72.6173 11.8 62.4 11.8C52.1827 11.8 43.9 20.0828 43.9 30.3C43.9 40.5173 52.1827 48.8 62.4 48.8Z" fill="#454753"/>
<path d="M56.9 21.4C55.1 21.4 53.6 22.9 53.6 24.7C53.6 26.5 55.1 28 56.9 28H57.1C58.9 28 60.4 26.5 60.4 24.7C60.4 22.9 58.9 21.4 57.1 21.4H56.9Z" fill="#9599B8"/>
<path d="M67.7 21.4C65.9 21.4 64.4 22.9 64.4 24.7C64.4 26.5 65.9 28 67.7 28H67.9C69.7 28 71.2 26.5 71.2 24.7C71.2 22.9 69.7 21.4 67.9 21.4H67.7Z" fill="#9599B8"/>
<path d="M56.9 32.4C55.1 32.4 53.6 33.9 53.6 35.7C53.6 37.5 55.1 39 56.9 39H57.1C58.9 39 60.4 37.5 60.4 35.7C60.4 33.9 58.9 32.4 57.1 32.4H56.9Z" fill="#9599B8"/>
<path d="M67.7 32.4C65.9 32.4 64.4 33.9 64.4 35.7C64.4 37.5 65.9 39 67.7 39H67.9C69.7 39 71.2 37.5 71.2 35.7C71.2 33.9 69.7 32.4 67.9 32.4H67.7Z" fill="#9599B8"/>
<path d="M231.3 48.8C241.517 48.8 249.8 40.5173 249.8 30.3C249.8 20.0828 241.517 11.8 231.3 11.8C221.083 11.8 212.8 20.0828 212.8 30.3C212.8 40.5173 221.083 48.8 231.3 48.8Z" fill="#454753"/>
<path d="M225.7 21.4C223.9 21.4 222.4 22.9 222.4 24.7C222.4 26.5 223.9 28 225.7 28H225.9C227.7 28 229.2 26.5 229.2 24.7C229.2 22.9 227.7 21.4 225.9 21.4H225.7Z" fill="#9599B8"/>
<path d="M236.6 21.4C234.8 21.4 233.3 22.9 233.3 24.7C233.3 26.5 234.8 28 236.6 28H236.8C238.6 28 240.1 26.5 240.1 24.7C240.1 22.9 238.6 21.4 236.8 21.4H236.6Z" fill="#9599B8"/>
<path d="M225.7 32.4C223.9 32.4 222.4 33.9 222.4 35.7C222.4 37.5 223.9 39 225.7 39H225.9C227.7 39 229.2 37.5 229.2 35.7C229.2 33.9 227.7 32.4 225.9 32.4H225.7Z" fill="#9599B8"/>
<path d="M236.6 32.4C234.8 32.4 233.3 33.9 233.3 35.7C233.3 37.5 234.8 39 236.6 39H236.8C238.6 39 240.1 37.5 240.1 35.7C240.1 33.9 238.6 32.4 236.8 32.4H236.6Z" fill="#9599B8"/>
<path fill-rule="evenodd" clip-rule="evenodd" d="M100.4 11.8H106.9C109.2 11.8 111 13.6 111 15.9V19C111 21.3 109.2 23.1 106.9 23.1H100.4C98.1 23.1 96.3 21.3 96.3 19V15.9C96.2 13.6 98 11.8 100.4 11.8Z" fill="#E9C031"/>
<path fill-rule="evenodd" clip-rule="evenodd" d="M129.2 11.8H135.7C138 11.8 139.8 13.6 139.8 15.9V19C139.8 21.3 138 23.1 135.7 23.1H129.2C126.9 23.1 125.1 21.3 125.1 19V15.9C125 13.6 126.9 11.8 129.2 11.8Z" fill="#E9C031"/>
<path fill-rule="evenodd" clip-rule="evenodd" d="M158 11.8H164.5C166.8 11.8 168.6 13.6 168.6 15.9V19C168.6 21.3 166.8 23.1 164.5 23.1H158C155.7 23.1 153.9 21.3 153.9 19V15.9C153.9 13.6 155.8 11.8 158 11.8Z" fill="#E9C031"/>
<path fill-rule="evenodd" clip-rule="evenodd" d="M186.8 11.8H193.3C195.6 11.8 197.4 13.6 197.4 15.9V19C197.4 21.3 195.6 23.1 193.3 23.1H186.8C184.5 23.1 182.7 21.3 182.7 19V15.9C182.8 13.6 184.6 11.8 186.8 11.8Z" fill="#E9C031"/>
<path fill-rule="evenodd" clip-rule="evenodd" d="M100.4 37.4H106.9C109.2 37.4 111 39.2 111 41.5V44.6C111 46.9 109.2 48.7 106.9 48.7H100.4C98.1 48.7 96.3 46.9 96.3 44.6V41.5C96.2 39.3 98 37.4 100.4 37.4Z" fill="#E9C031"/>
<path fill-rule="evenodd" clip-rule="evenodd" d="M129.2 37.4H135.7C138 37.4 139.8 39.2 139.8 41.5V44.6C139.8 46.9 138 48.7 135.7 48.7H129.2C126.9 48.7 125.1 46.9 125.1 44.6V41.5C125 39.3 126.9 37.4 129.2 37.4Z" fill="#E9C031"/>
<path fill-rule="evenodd" clip-rule="evenodd" d="M158 37.4H164.5C166.8 37.4 168.6 39.2 168.6 41.5V44.6C168.6 46.9 166.8 48.7 164.5 48.7H158C155.7 48.7 153.9 46.9 153.9 44.6V41.5C153.9 39.3 155.8 37.4 158 37.4Z" fill="#E9C031"/>
<path fill-rule="evenodd" clip-rule="evenodd" d="M186.8 37.4H193.3C195.6 37.4 197.4 39.2 197.4 41.5V44.6C197.4 46.9 195.6 48.7 193.3 48.7H186.8C184.5 48.7 182.7 46.9 182.7 44.6V41.5C182.8 39.3 184.6 37.4 186.8 37.4Z" fill="#E9C031"/>
</svg>
